<svg width="360" height="140" viewBox="0 0 360 140" fill="none" xmlns="http://www.w3.org/2000/svg"><g clip-path="url(#clip0)"><path fill="#F6F7FC" d="M0 0h360v140H0z"/><path fill="#EFF0F9" d="M0 0h360v140H0z"/><path d="M55 170L-1 34.5l227 133L55 170zM205.5 147.5l156.5-92 8 92H205.5z" fill="#D5D7E9"/><path fill-rule="evenodd" clip-rule="evenodd" d="M-82.278-75.648l210.41-124.335L409.253-33.864l-2.524 1.49L128.993-196.49l-.861-.509-.861.509L-79.754-74.157l-2.524-1.491zm1.663 2l-2.524-1.492-.861-.508.86-.509 210.411-124.334.861-.509.861.509L410.114-34.373l.861.509-.861.508-2.524 1.492 2.524 1.49.861.51-.861.508-2.524 1.492 2.524 1.49.861.51-.861.508-2.524 1.492 2.524 1.49.861.51-.861.508-2.524 1.492 2.524 1.49.861.51-.861.508-2.524 1.492 2.524 1.49.861.51-.861.508-2.524 1.492 2.524 1.49.861.51-.861.508-2.524 1.492 2.524 1.49.861.51-.861.508-2.524 1.492 2.524 1.49.861.51-.861.508L407.59.136l2.524 1.49.861.51-.861.508-2.524 1.492 2.524 1.49.861.51-.861.508-2.524 1.492 2.524 1.49.861.51-.861.508-2.524 1.492 2.524 1.49.861.51-.861.508-2.524 1.492 2.524 1.49.861.51-.861.508-2.524 1.492 2.524 1.49.861.51-.861.508-2.524 1.492 2.524 1.49.861.51-.861.508-210.41 124.335-.861.508-.861-.508L-83.139-15.14l-.861-.508.86-.509 2.525-1.491-2.524-1.492-.861-.508.86-.509 2.525-1.491-2.524-1.492-.861-.508.86-.509 2.525-1.491-2.524-1.492-.861-.508.86-.509 2.525-1.491-2.524-1.492-.861-.508.86-.509 2.525-1.491-2.524-1.491-.861-.51.86-.508 2.525-1.491-2.524-1.491-.861-.51.86-.508 2.525-1.491-2.524-1.491-.861-.51.86-.508 2.525-1.491-2.524-1.491-.861-.51.86-.508 2.525-1.491-2.524-1.491-.861-.51.86-.508 2.525-1.491-2.524-1.491-.861-.51.86-.508 2.525-1.491-2.524-1.491-.861-.51.86-.508 2.525-1.491-2.524-1.491-.861-.51.86-.508 2.525-1.491-2.524-1.492-.861-.508.86-.509 2.525-1.491-2.524-1.492-.861-.508.86-.509 2.525-1.491zm.86 56.508l-2.523 1.492L198.843 150.47l210.41-124.334-2.524-1.492L199.704 146.98l-.861.508-.861-.508L-79.754-17.14zm485.623 41.276L198.843 146.47-78.894-17.648l2.524-1.492L197.982 142.98l.861.508.861-.508L403.345 22.644l2.523 1.492zm.861-.51l2.524-1.49-2.524-1.492-2.523 1.492 2.523 1.49zm-3.384-2l2.523-1.49-2.523-1.492-2.524 1.492 2.524 1.49zm-3.385-2l2.524-1.49-2.524-1.492-2.524 1.492 2.524 1.49zm-3.385-.982l2.524 1.492L198.843 138.47-72.124-21.648l2.523-1.492L197.982 134.98l.861.508.861-.508L396.575 18.644zm.001-1.017l2.523-1.491-2.524-1.492-2.523 1.492 2.524 1.49zm-3.385-.983l2.524 1.492L198.843 134.47-68.74-23.648l2.524-1.492L197.982 130.98l.861.508.861-.508L393.191 16.644zm0-1.017l2.524-1.491-2.524-1.492-2.524 1.492 2.524 1.49zm-3.385-.983l2.524 1.492L198.843 130.47-65.355-25.648l2.524-1.492L197.981 126.98l.861.508.861-.508L389.806 14.644zm0-1.017l2.524-1.491-2.524-1.492-2.523 1.492 2.523 1.49zm-3.384-.983l2.523 1.492L198.843 126.47-61.971-27.648l2.524-1.492L197.982 122.98l.861.508.861-.508L386.422 12.644zm0-1.017l2.523-1.491-2.523-1.492-2.524 1.492 2.524 1.49zm-3.385-.983l2.524 1.492L198.843 122.47-58.586-29.648l2.524-1.492L197.982 118.98l.861.508.861-.508L383.037 10.644zm0-1.017l2.524-1.491-2.524-1.492-2.524 1.492 2.524 1.49zm-3.384-.983l2.523 1.492L198.843 118.47-55.201-31.648l2.523-1.491 250.66 148.118.861.508.861-.508L379.653 8.644zm0-1.017l2.523-1.491-2.523-1.492-2.524 1.492 2.524 1.49zm-3.385-.983l2.524 1.492L198.843 114.47-51.817-33.648l2.524-1.491 247.275 146.118.861.508.861-.508L376.268 6.644zm0-1.017l2.524-1.491-2.524-1.492-2.524 1.492 2.524 1.49zm-3.385-.983l2.524 1.492L198.843 110.47-48.432-35.648l2.523-1.491 243.891 144.118.861.508.861-.508L372.883 4.644zm0-1.017l2.524-1.491-2.524-1.492-2.523 1.492 2.523 1.49zm-3.384-.983l2.523 1.492L198.843 106.47-45.047-37.648l2.523-1.491 240.506 142.118.861.508.861-.508L369.499 2.644zm0-1.017l2.523-1.491-2.523-1.492-2.524 1.492 2.524 1.49zm-3.385-.983l2.524 1.492L198.843 102.47-41.663-39.648l2.524-1.491L197.982 98.978l.861.508.861-.508L366.114.644zm0-1.017l2.524-1.491-2.524-1.492-2.523 1.492 2.523 1.49zm-3.384-.983l2.523 1.492-166.41 98.334L-38.278-41.648l2.523-1.491L197.982 94.978l.861.508.861-.508L362.73-1.356zm0-1.017l2.523-1.491-2.523-1.492-2.524 1.492 2.524 1.49zm-3.385-.983l2.524 1.492L198.843 94.47-34.894-43.648l2.524-1.491L197.982 90.978l.861.508.861-.508L359.345-3.356zm0-1.017l2.524-1.491-233.737-138.119-163.026 96.335 2.524 1.491 159.641-94.334.861-.509.861.509L359.345-4.373zM-31.509-45.648l159.641-94.335L358.484-3.864 198.843 90.47-31.509-45.648zm-1.722 0l-2.524-1.491-2.523 1.49 2.523 1.492 2.524-1.491zm-3.385 2l-2.523-1.491-2.524 1.49 2.524 1.492 2.523-1.491zm-3.384 2l-2.524-1.491-2.524 1.49 2.524 1.492L-40-41.648zm-3.385 2l-2.524-1.491-2.523 1.49 2.523 1.492 2.524-1.491zm-3.385 2l-2.523-1.491-2.524 1.49 2.524 1.492 2.523-1.491zm-3.384 2l-2.524-1.491-2.523 1.49 2.523 1.492 2.524-1.491zm-3.385 2l-2.523-1.491-2.524 1.49 2.524 1.492 2.523-1.491zm-3.384 2l-2.524-1.491-2.524 1.49 2.524 1.492 2.524-1.491zm-3.385 2l-2.523-1.492-2.524 1.492 2.524 1.491 2.523-1.491zm-3.385 2l-2.523-1.492-2.524 1.492 2.524 1.491 2.523-1.491zm-3.384 2l-2.524-1.492-2.523 1.492 2.523 1.491 2.524-1.491zm-3.385 2l-2.523-1.492-2.524 1.492 2.524 1.491 2.523-1.491zm-3.384 2l-2.524-1.492-2.524 1.492 2.524 1.491 2.524-1.491zm-1.663 2L198.843 142.47 402.484 22.136l-2.524-1.492L199.704 138.98l-.861.508-.861-.508L-72.985-21.14l-2.524 1.492zm-1.722 0l-2.523-1.492-2.524 1.492 2.524 1.491 2.523-1.491zm486.484 37.784l-2.524 1.49-2.523-1.49 2.523-1.492 2.524 1.492zm-3.385-2l-2.523 1.49-2.524-1.49 2.524-1.492 2.523 1.492zm-3.384-2l-2.524 1.49-2.524-1.49 2.524-1.492 2.524 1.492zm-3.385-2l-2.523 1.49-2.524-1.49 2.523-1.492 2.524 1.492zm-3.384-2l-2.524 1.49-2.524-1.49 2.524-1.492 2.524 1.492zm-3.385-2l-2.524 1.49-2.523-1.49 2.523-1.492 2.524 1.492zm-3.385-2l-2.523 1.49-2.524-1.49 2.524-1.492 2.523 1.492zm-3.384-2l-2.524 1.49-2.524-1.49 2.524-1.492 2.524 1.492zm-3.385-2l-2.523 1.49-2.524-1.49 2.524-1.492 2.523 1.492zm-3.384-2l-2.524 1.49-2.524-1.49 2.524-1.492 2.524 1.492zm-3.385-2l-2.524 1.49-2.523-1.49 2.523-1.492 2.524 1.492zm-3.385-2l-2.523 1.49-2.524-1.49 2.524-1.492 2.523 1.492zm-3.384-2l-2.524 1.49-2.523-1.49 2.523-1.492 2.524 1.492zm-3.385-2l-2.523 1.49L128.993-144.49l-.861-.509-.861.509-163.026 96.334-2.523-1.491 166.41-98.335L365.253-7.864zM-39.139-49.14l2.523 1.49-2.523 1.492-2.524-1.491 2.524-1.491zm-3.385 2L-40-45.65l-2.524 1.492-2.524-1.491 2.524-1.491zm-3.385 2l2.524 1.49-2.524 1.492-2.523-1.491 2.523-1.491zm-3.384 2l2.523 1.49-2.523 1.492-2.524-1.491 2.524-1.491zm-3.385 2l2.524 1.49-2.524 1.492-2.523-1.491 2.523-1.491zm-3.384 2l2.523 1.49-2.523 1.492-2.524-1.491 2.524-1.491zm-3.385 2l2.524 1.49-2.524 1.492-2.524-1.491 2.524-1.491zm-3.384 2l2.523 1.49-2.523 1.492-2.524-1.491 2.524-1.491zm-3.385 2l2.523 1.49-2.523 1.492-2.524-1.491 2.524-1.491zm-3.385 2l2.524 1.49-2.524 1.492-2.523-1.491 2.523-1.492zm-3.384 2l2.523 1.49-2.523 1.492-2.524-1.491 2.524-1.492zm-3.385 2l2.524 1.49-2.524 1.492-2.524-1.491 2.524-1.492zm-3.384 2l2.523 1.49-2.523 1.492-2.524-1.491 2.524-1.492zm486.483 40.766l2.524-1.491-2.524-1.492-2.523 1.492 2.523 1.49zm-3.384-2l2.523-1.491-2.523-1.492-2.524 1.492 2.524 1.49zm-3.385-2l2.524-1.491-2.524-1.492-2.524 1.492 2.524 1.49zm-3.384-2l2.523-1.491-2.524-1.492-2.523 1.492 2.524 1.49zm-3.385-2l2.524-1.491-2.524-1.492-2.524 1.492 2.524 1.49zm-3.385-2l2.524-1.491-2.524-1.492-2.523 1.492 2.523 1.49zm-3.384-2l2.523-1.491-2.523-1.492-2.524 1.492 2.524 1.49zm-3.385-2l2.524-1.491-2.524-1.492-2.524 1.492 2.524 1.49zm-3.384-2l2.523-1.491-2.523-1.492-2.524 1.492 2.524 1.49zm-3.385-2l2.524-1.491-2.524-1.492-2.524 1.492 2.524 1.49zm-3.385-2l2.524-1.491-2.524-1.492-2.523 1.492 2.523 1.49zm-3.384-2l2.523-1.491-2.523-1.492-2.524 1.492 2.524 1.49zm-3.385-2l2.524-1.491-240.506-142.119L-41.663-51.648l2.524 1.491 166.41-98.334.861-.509.861.509L366.114-8.373zM-40-49.648l-2.524-1.491-2.524 1.49 2.524 1.492L-40-49.648zm-3.385 2l-2.524-1.491-2.523 1.49 2.523 1.492 2.524-1.491zm-3.385 2l-2.523-1.491-2.524 1.49 2.524 1.492 2.523-1.491zm-3.384 2l-2.524-1.491-2.523 1.49 2.523 1.492 2.524-1.491zm-3.385 2l-2.523-1.491-2.524 1.49 2.524 1.492 2.523-1.491zm-3.384 2l-2.524-1.491-2.524 1.49 2.524 1.492 2.524-1.491zm-3.385 2l-2.523-1.491-2.524 1.49 2.524 1.492 2.523-1.491zm-3.385 2l-2.523-1.491-2.524 1.49 2.524 1.492 2.523-1.491zm-3.384 2l-2.524-1.491-2.523 1.49 2.523 1.492 2.524-1.491zm-3.385 2l-2.523-1.491-2.524 1.49 2.524 1.492 2.523-1.491zm-3.384 2l-2.524-1.492-2.524 1.492 2.524 1.491 2.524-1.491zm-3.385 2l-2.523-1.492-2.524 1.492 2.524 1.491 2.523-1.491zm486.484 37.784l-2.524 1.49-2.523-1.49 2.523-1.492 2.524 1.492zm-3.385-2l-2.523 1.49-2.524-1.49 2.524-1.492 2.523 1.492zm-3.384-2l-2.524 1.49-2.524-1.49 2.524-1.492 2.524 1.492zm-3.385-2l-2.523 1.49-2.524-1.49 2.523-1.492 2.524 1.492zm-3.384-2l-2.524 1.49-2.524-1.49 2.524-1.492 2.524 1.492zm-3.385-2l-2.524 1.49-2.523-1.49 2.523-1.492L392.33.136zm-3.385-2l-2.523 1.49-2.524-1.49 2.524-1.492 2.523 1.492zm-3.384-2l-2.524 1.49-2.524-1.49 2.524-1.492 2.524 1.492zm-3.385-2l-2.523 1.49-2.524-1.49 2.524-1.492 2.523 1.492zm-3.384-2l-2.524 1.49-2.524-1.49 2.524-1.492 2.524 1.492zm-3.385-2l-2.524 1.49-2.523-1.49 2.523-1.492 2.524 1.492zm-3.385-2l-2.523 1.49L128.993-152.49l-.861-.509-.861.509L-42.524-52.157l-2.524-1.491 173.18-102.335 243.89 144.119zM-45.908-53.14l2.523 1.49-2.524 1.492-2.523-1.491 2.523-1.491zm-3.385 2l2.523 1.49-2.523 1.492-2.524-1.491 2.524-1.491zm-3.385 2l2.524 1.49-2.524 1.492-2.523-1.491 2.523-1.491zm-3.384 2l2.523 1.49-2.523 1.492-2.524-1.491 2.524-1.491zm-3.385 2l2.524 1.49-2.524 1.492-2.524-1.491 2.524-1.491zm-3.384 2l2.523 1.49-2.523 1.492-2.524-1.491 2.524-1.491zm-3.385 2l2.523 1.49-2.523 1.492-2.524-1.491 2.524-1.491zm-3.385 2l2.524 1.49-2.524 1.492-2.523-1.491 2.523-1.491zm-3.384 2l2.523 1.49-2.523 1.492-2.524-1.491 2.524-1.491zm-3.385 2l2.524 1.49-2.524 1.492-2.524-1.491 2.524-1.491zm-3.384 2l2.523 1.49-2.523 1.492-2.524-1.491 2.524-1.491zM406.728 7.627l2.524-1.491-2.524-1.492-2.523 1.492 2.523 1.49zm-3.384-2l2.523-1.491-2.523-1.492-2.524 1.492 2.524 1.49zm-3.385-2l2.524-1.491L399.96.644l-2.524 1.492 2.524 1.49zm-3.384-2l2.523-1.491-2.524-1.492-2.523 1.492 2.524 1.49zm-3.385-2l2.524-1.491-2.524-1.492-2.524 1.492 2.524 1.49zm-3.385-2l2.524-1.491-2.524-1.492-2.523 1.492 2.523 1.49zm-3.384-2l2.523-1.491-2.523-1.492-2.524 1.492 2.524 1.49zm-3.385-2l2.524-1.491-2.524-1.492-2.524 1.492 2.524 1.49zm-3.384-2l2.523-1.491-2.523-1.492-2.524 1.492 2.524 1.49zm-3.385-2l2.524-1.491-2.524-1.492-2.524 1.492 2.524 1.49zm-3.385-2l2.524-1.491-247.275-146.119L-48.432-55.648l2.523 1.491 173.18-102.334.861-.509.861.509 243.89 144.118zM-46.769-53.648l-2.524-1.491-2.524 1.49 2.524 1.492 2.523-1.491zm-3.385 2l-2.524-1.491-2.523 1.49 2.523 1.492 2.524-1.491zm-3.385 2l-2.523-1.491-2.524 1.49 2.524 1.492 2.523-1.491zm-3.384 2l-2.524-1.491-2.524 1.49 2.524 1.492 2.524-1.491zm-3.385 2l-2.523-1.491-2.524 1.49 2.524 1.492 2.523-1.491zm-3.385 2l-2.523-1.491-2.524 1.49 2.524 1.492 2.523-1.491zm-3.384 2l-2.524-1.491-2.523 1.49 2.523 1.492 2.524-1.491zm-3.385 2l-2.523-1.491-2.524 1.49 2.524 1.492 2.523-1.491zm-3.384 2l-2.524-1.491-2.524 1.49 2.524 1.492 2.524-1.491zm-3.385 2l-2.523-1.491-2.524 1.49 2.524 1.492 2.523-1.491zM409.253 2.136l-2.524 1.49-2.523-1.49 2.523-1.492 2.524 1.492zm-3.385-2l-2.523 1.49-2.524-1.49 2.524-1.492 2.523 1.492zm-3.384-2l-2.524 1.49-2.524-1.49 2.524-1.492 2.524 1.492zm-3.385-2l-2.523 1.49-2.524-1.49 2.523-1.492 2.524 1.492zm-3.384-2l-2.524 1.49-2.524-1.49 2.524-1.492 2.524 1.492zm-3.385-2l-2.524 1.49-2.523-1.49 2.523-1.492 2.524 1.492zm-3.385-2l-2.523 1.49-2.524-1.49 2.524-1.492 2.523 1.492zm-3.384-2l-2.524 1.49-2.524-1.49 2.524-1.492 2.524 1.492zm-3.385-2l-2.523 1.49-2.524-1.49 2.524-1.492 2.523 1.492zm-3.384-2l-2.524 1.49L128.993-160.49l-.861-.509-.861.509L-49.293-56.157l-2.524-1.491 179.949-106.335 250.66 148.119zM-52.678-57.14l2.524 1.49-2.524 1.492-2.523-1.491 2.523-1.491zm-3.384 2l2.523 1.49-2.523 1.492-2.524-1.491 2.524-1.491zm-3.385 2l2.524 1.49-2.524 1.492-2.524-1.491 2.524-1.491zm-3.384 2l2.523 1.49-2.523 1.492-2.524-1.491 2.524-1.491zm-3.385 2l2.523 1.49-2.523 1.492-2.524-1.491 2.524-1.491zm-3.385 2l2.524 1.49-2.524 1.492-2.523-1.491 2.523-1.491zm-3.384 2l2.523 1.49-2.523 1.492-2.524-1.491 2.524-1.491zm-3.385 2l2.524 1.49-2.524 1.492-2.524-1.491 2.524-1.491zm-3.384 2l2.523 1.49-2.523 1.492-2.524-1.491 2.524-1.491zM406.728-.373l2.524-1.491-2.524-1.492-2.523 1.492 2.523 1.49zm-3.384-2l2.523-1.491-2.523-1.492-2.524 1.492 2.524 1.49zm-3.385-2l2.524-1.491-2.524-1.492-2.524 1.492 2.524 1.49zm-3.384-2l2.523-1.491-2.524-1.492-2.523 1.492 2.524 1.49zm-3.385-2l2.524-1.491-2.524-1.492-2.524 1.492 2.524 1.49zm-3.385-2l2.524-1.491-2.524-1.492-2.523 1.492 2.523 1.49zm-3.384-2l2.523-1.491-2.523-1.492-2.524 1.492 2.524 1.49zm-3.385-2l2.524-1.491-2.524-1.492-2.524 1.492 2.524 1.49zm-3.384-2l2.523-1.491-254.044-150.119L-55.201-59.648l2.523 1.491 179.949-106.334.861-.509.861.509 250.66 148.118zM-53.539-57.648l-2.523-1.491-2.524 1.49 2.524 1.492 2.523-1.491zm-3.384 2l-2.524-1.491-2.524 1.49 2.524 1.492 2.524-1.491zm-3.385 2l-2.523-1.491-2.524 1.49 2.524 1.492 2.523-1.491zm-3.385 2l-2.523-1.491-2.524 1.49 2.524 1.492 2.523-1.491zm-3.384 2l-2.524-1.491-2.523 1.49 2.523 1.492 2.524-1.491zm-3.385 2l-2.523-1.491-2.524 1.49 2.524 1.492 2.523-1.491zm-3.384 2l-2.524-1.491-2.524 1.49 2.524 1.492 2.524-1.491zm-3.385 2l-2.523-1.491-2.524 1.49 2.524 1.492 2.523-1.491zM409.253-5.864l-2.524 1.49-2.523-1.49 2.523-1.492 2.524 1.492zm-3.385-2l-2.523 1.49-2.524-1.49 2.524-1.492 2.523 1.492zm-3.384-2l-2.524 1.49-2.524-1.49 2.524-1.492 2.524 1.492zm-3.385-2l-2.523 1.49-2.524-1.49 2.523-1.492 2.524 1.492zm-3.384-2l-2.524 1.49-2.524-1.49 2.524-1.492 2.524 1.492zm-3.385-2l-2.524 1.49-2.523-1.49 2.523-1.492 2.524 1.492zm-3.385-2l-2.523 1.49-2.524-1.49 2.524-1.492 2.523 1.492zm-3.384-2l-2.524 1.49L128.993-168.49l-.861-.509-.861.509L-56.062-60.157l-2.524-1.491 186.718-110.335L385.561-19.864zM-59.447-61.14l2.524 1.49-2.524 1.492-2.524-1.491 2.524-1.491zm-3.385 2l2.524 1.49-2.523 1.492-2.524-1.491 2.523-1.491zm-3.384 2l2.523 1.49-2.523 1.492-2.524-1.491 2.524-1.491zm-3.385 2l2.524 1.49-2.524 1.492-2.523-1.491 2.523-1.491zm-3.384 2l2.523 1.49-2.523 1.492-2.524-1.491 2.524-1.491zm-3.385 2l2.524 1.49-2.524 1.492-2.524-1.491 2.524-1.491zm-3.384 2l2.523 1.49-2.523 1.492-2.524-1.491 2.524-1.491zM406.728-8.373l2.524-1.491-2.524-1.492-2.523 1.492 2.523 1.49zm-3.384-2l2.523-1.491-2.523-1.492-2.524 1.492 2.524 1.49zm-3.385-2l2.524-1.491-2.524-1.492-2.524 1.492 2.524 1.49zm-3.384-2l2.523-1.491-2.524-1.492-2.523 1.492 2.524 1.49zm-3.385-2l2.524-1.491-2.524-1.492-2.524 1.492 2.524 1.49zm-3.385-2l2.524-1.491-2.524-1.492-2.523 1.492 2.523 1.49zm-3.384-2l2.523-1.491-260.813-154.119L-61.971-63.648l2.524 1.491 186.718-110.334.861-.509.861.509L386.422-20.373zm-446.73-41.275l-2.523-1.491-2.524 1.49 2.524 1.492 2.523-1.491zm-3.385 2l-2.523-1.491-2.524 1.49 2.524 1.492 2.523-1.491zm-3.384 2l-2.524-1.491-2.523 1.49 2.523 1.492 2.524-1.491zm-3.385 2l-2.523-1.491-2.524 1.49 2.524 1.492 2.523-1.491zm-3.384 2l-2.524-1.491-2.524 1.49 2.524 1.492 2.524-1.491zm-3.385 2l-2.523-1.491-2.524 1.49 2.524 1.492 2.523-1.491zm486.484 37.784l-2.524 1.49-2.523-1.49 2.523-1.492 2.524 1.492zm-3.385-2l-2.523 1.49-2.524-1.49 2.524-1.492 2.523 1.492zm-3.384-2l-2.524 1.49-2.524-1.49 2.524-1.492 2.524 1.492zm-3.385-2l-2.523 1.49-2.524-1.49 2.524-1.492 2.523 1.492zm-3.384-2l-2.524 1.49-2.524-1.49 2.524-1.492 2.524 1.492zm-3.385-2l-2.524 1.49L128.993-176.49l-.861-.509-.861.509L-62.831-64.157l-2.524-1.491 193.487-114.335L392.33-23.864zM-66.216-65.14l2.523 1.49-2.523 1.492-2.524-1.491 2.524-1.491zm-3.385 2l2.524 1.49-2.524 1.492-2.523-1.491 2.523-1.491zm-3.384 2l2.523 1.49-2.523 1.492-2.524-1.491 2.524-1.491zm-3.385 2l2.524 1.49-2.524 1.492-2.524-1.491 2.524-1.491zm-3.384 2l2.523 1.49-2.523 1.492-2.524-1.491 2.524-1.491zm486.483 40.766l2.524-1.491-2.524-1.492-2.523 1.492 2.523 1.49zm-3.384-2l2.523-1.491-2.523-1.492-2.524 1.492 2.524 1.49zm-3.385-2l2.524-1.491-2.524-1.492-2.524 1.492 2.524 1.49zm-3.384-2l2.523-1.491-2.524-1.492-2.523 1.492 2.524 1.49zm-3.385-2l2.524-1.491-267.583-158.119L-68.74-67.648l2.524 1.491L127.27-180.491l.861-.509.861.509L393.191-24.373zM-67.077-65.648l-2.524-1.492-2.523 1.492 2.523 1.491 2.524-1.491zm-3.385 2l-2.523-1.491-2.524 1.49 2.524 1.492 2.523-1.491zm-3.384 2l-2.524-1.491-2.524 1.49 2.524 1.492 2.524-1.491zm-3.385 2l-2.523-1.491-2.524 1.49 2.524 1.492 2.523-1.491zm486.484 37.784l-2.524 1.49-2.523-1.49 2.523-1.492 2.524 1.492zm-3.385-2l-2.523 1.49-2.524-1.49 2.524-1.492 2.523 1.492zm-3.384-2l-2.524 1.49-2.524-1.49 2.524-1.492 2.524 1.492zm-3.385-2l-2.524 1.49L128.993-184.49l-.861-.509-.861.509L-69.601-68.157l-2.523-1.491 200.256-118.335L399.099-27.864zM-72.985-69.14l2.523 1.49-2.523 1.492-2.524-1.491 2.524-1.492zm-3.385 2l2.524 1.49-2.524 1.492-2.524-1.491 2.524-1.492zm-3.384 2l2.523 1.49-2.523 1.492-2.524-1.491 2.524-1.491zm486.483 40.766l2.524-1.491-2.524-1.492-2.523 1.492 2.523 1.49zm-3.384-2l2.523-1.491-2.523-1.492-2.524 1.492 2.524 1.49zm-3.385-2l2.524-1.491-274.352-162.119L-75.509-71.648l2.524 1.491L127.27-188.491l.861-.509.861.509L399.96-28.373zM-73.846-69.648l-2.524-1.492-2.524 1.492 2.524 1.491 2.524-1.491zm-3.385 2l-2.523-1.492-2.524 1.492 2.524 1.491 2.523-1.491zm486.484 37.784l-2.524 1.49-2.523-1.49 2.523-1.492 2.524 1.492zm-3.385-2l-2.523 1.49L128.993-192.49l-.861-.509-.861.509-203.64 120.334-2.525-1.491 207.026-122.335L405.868-31.864zM-79.755-73.14l2.524 1.49-2.523 1.492-2.524-1.491 2.524-1.492z" fill="#fff"/><path fill="#fff" d="M-84-79.648L128.132-205 410.975-37.864 198.843 87.488zM270.929 107.874V64.022A5.747 5.747 0 0 0 267 58.571l29.469-17.682a6.32 6.32 0 0 1 4.584 6.078V89.42a4.217 4.217 0 0 0 2.564 3.88L341 109.235l-31.434 3.274V131.5l-36.29-19.683a4.486 4.486 0 0 1-2.347-3.943z"/></g><defs><clipPath id="clip0"><path fill="#fff" d="M0 0h360v140H0z"/></clipPath></defs></svg>